<?xml version="1.0" encoding="UTF-8"?>
<svg id="Layer_1" xmlns="http://www.w3.org/2000/svg" viewBox="0 0 1539 1540">
  <defs>
    <style>
      .cls-1 {
        fill: #897bb2;
      }
    </style>
  </defs>
  <path class="cls-1" d="M1446.17,767.37c0-379.41-307.58-686.99-687-686.99S72.17,387.96,72.17,767.37s307.58,687.01,687,687.01,687-307.58,687-687.01"/>
  <g id="gdwXct">
    <path d="M448.45,370.36c-30.07,30.02-58.39,58.29-87.49,87.35,1.77,1.88,3.91,4.27,6.16,6.52,133.76,133.73,267.13,267.84,401.59,400.85,30.35,30.02,64.44,56.26,96.89,84.14,30.61,26.31,61.33,52.49,91.99,78.75,1.13.97,2.07,2.18,4.68,4.97-6.42,5.71-12.39,11.83-19.24,16.69-2.45,1.74-7.3,1.37-10.63.44-45.79-12.79-91.11-27.49-137.32-38.47-78.42-18.63-158.3-23.63-238.66-18.06-38.69,2.68-77.25,7.4-115.88,11.03-5.09.48-7.64,2.26-7.85,7.71-1.65,42.45-3.47,84.9-5.2,127.35-.05,1.14.32,2.3.7,4.9,10.34-1.63,20.38-3.06,30.37-4.81,100.32-17.62,201.23-28.19,303.26-25.07,81.76,2.5,162.52,13.24,242.47,30.19,27.56,5.84,54.95,12.46,82.36,18.97,5.2,1.24,8.85.66,12.82-3.42,17.79-18.27,35.82-36.31,54.1-54.09,4.11-3.99,4.38-7.5,3.27-12.76-12.07-56.88-25.39-113.56-35.27-170.83-12.66-73.37-17.08-147.54-15.04-222.09,2.39-87.25,13.85-173.4,29.51-259.1.27-1.46.17-2.98.32-5.94-46.29,1.88-92.19,3.74-138.92,5.63-2.44,20.16-5.87,39.31-6.88,58.58-2.57,49.06-5.92,98.18-5.57,147.26.64,89.84,19.27,176.9,46.3,262.29,3.75,11.84,8.07,23.51,11.38,35.46.81,2.94-.38,7.46-2.32,9.94-4.65,5.93-10.29,11.08-16.5,17.54-10.48-11.96-20.41-23.22-30.25-34.56-44.59-51.32-89.15-102.66-133.74-153.97-1.79-2.06-3.74-3.98-5.67-5.91-133.53-133.54-267.08-267.07-400.57-400.64-2.13-2.13-3.67-4.86-5.14-6.84Z"/>
  </g>
</svg>